<?xml version="1.0" standalone="no"?>
<!DOCTYPE svg PUBLIC "-//W3C//DTD SVG 20010904//EN"
 "http://www.w3.org/TR/2001/REC-SVG-20010904/DTD/svg10.dtd">
<svg version="1.0" xmlns="http://www.w3.org/2000/svg"
 width="1417.000000pt" height="1417.000000pt" viewBox="0 0 1417.000000 1417.000000"
 preserveAspectRatio="xMidYMid meet">
<metadata>
Created by potrace 1.14, written by Peter Selinger 2001-2017
</metadata>
<g transform="translate(0.000000,1417.000000) scale(0.100000,-0.100000)"
fill="#000000" stroke="none">
<path d="M6758 14075 c-2 -2 -44 -6 -93 -10 -50 -3 -108 -8 -130 -10 -95 -8
-182 -17 -205 -20 -14 -2 -52 -7 -85 -11 -33 -3 -69 -8 -80 -10 -11 -2 -40 -7
-65 -10 -25 -3 -52 -7 -60 -9 -8 -1 -35 -6 -60 -10 -38 -6 -252 -48 -385 -75
-175 -37 -792 -219 -840 -248 -5 -4 -14 -7 -20 -8 -15 -3 -258 -100 -340 -136
-139 -61 -163 -71 -340 -158 -254 -125 -450 -236 -725 -414 -69 -44 -129 -84
-135 -88 -5 -5 -62 -45 -125 -90 -63 -45 -119 -86 -125 -90 -85 -66 -331 -263
-335 -267 -3 -3 -23 -21 -45 -40 -268 -227 -676 -646 -868 -891 -7 -8 -30 -38
-53 -65 -57 -71 -159 -206 -230 -305 -65 -91 -214 -311 -214 -316 0 -1 -17
-29 -37 -61 -240 -374 -504 -917 -658 -1355 -108 -307 -225 -721 -260 -918 -3
-19 -10 -53 -15 -75 -5 -22 -12 -56 -15 -75 -3 -19 -8 -42 -10 -50 -2 -8 -7
-33 -10 -55 -3 -23 -7 -50 -9 -62 -7 -32 -14 -81 -26 -173 -6 -47 -13 -96 -15
-110 -5 -31 -15 -127 -21 -205 -2 -33 -6 -80 -9 -105 -22 -233 -23 -812 0
-1045 2 -22 6 -71 10 -110 3 -38 8 -83 10 -100 2 -16 6 -57 10 -90 4 -33 8
-71 10 -85 2 -14 11 -74 20 -135 9 -60 23 -141 30 -180 8 -38 17 -87 21 -109
3 -21 7 -46 10 -55 2 -9 11 -47 19 -86 222 -1017 697 -2006 1359 -2830 259
-322 582 -657 882 -915 91 -78 221 -184 271 -222 32 -23 60 -46 63 -49 30 -37
477 -340 660 -448 58 -34 112 -66 120 -71 71 -44 549 -290 565 -290 3 0 33
-13 68 -29 96 -45 180 -82 197 -86 8 -2 60 -22 115 -45 104 -43 419 -151 565
-194 146 -43 463 -123 520 -131 20 -2 124 -24 175 -36 22 -5 57 -11 79 -14 21
-2 46 -7 55 -9 9 -3 34 -7 56 -10 54 -7 114 -15 150 -20 28 -5 58 -9 155 -21
19 -2 67 -7 105 -10 39 -3 84 -8 100 -10 144 -20 817 -27 1055 -12 169 11 273
21 351 31 19 3 61 8 94 11 33 3 69 8 80 10 11 3 38 7 60 10 107 15 172 25 195
30 23 5 51 9 110 19 242 40 877 215 1080 299 14 5 30 11 35 12 6 2 51 19 100
39 50 21 95 38 100 40 6 1 27 10 49 19 21 9 40 17 42 17 2 0 27 11 56 24 29
13 78 35 108 48 143 61 465 230 692 363 258 151 602 394 853 603 11 9 47 39
80 66 33 28 80 68 104 91 25 22 74 67 110 100 113 103 359 355 474 485 158
180 381 460 467 586 262 387 397 616 556 939 187 382 326 745 439 1145 48 169
112 430 121 488 3 20 9 53 14 72 5 19 11 51 14 70 3 19 8 46 11 60 3 14 8 45
11 70 3 25 7 52 9 60 2 8 7 38 11 65 3 28 8 57 9 65 2 9 6 43 10 75 4 33 8 71
10 85 2 14 7 57 10 95 4 39 8 81 10 95 19 125 27 882 12 1075 -4 44 -9 109
-11 145 -6 75 -13 147 -21 205 -3 22 -8 67 -11 99 -3 33 -8 69 -10 80 -2 11
-6 38 -9 61 -3 22 -12 78 -20 125 -8 47 -16 101 -19 120 -3 19 -8 44 -10 55
-3 11 -14 66 -25 123 -296 1474 -1089 2854 -2221 3863 -163 145 -259 223 -465
379 -319 240 -698 471 -1080 659 -376 184 -721 317 -1132 436 -83 25 -162 47
-175 49 -13 3 -43 10 -68 17 -60 14 -44 11 -240 54 -59 13 -172 35 -205 40
-22 3 -79 12 -126 20 -47 8 -108 17 -135 20 -61 7 -99 12 -144 19 -19 2 -66 8
-105 11 -38 4 -88 8 -110 11 -122 13 -246 17 -582 19 -205 1 -374 1 -375 0z
m802 -1289 c25 -3 76 -8 114 -11 37 -3 121 -12 185 -21 151 -20 147 -19 286
-45 66 -12 129 -23 140 -24 42 -6 317 -76 436 -111 173 -50 446 -143 524 -179
17 -8 53 -23 80 -34 134 -51 478 -220 618 -303 54 -32 100 -58 103 -58 4 0 58
-34 189 -118 192 -124 429 -302 615 -462 196 -169 409 -381 615 -614 6 -6 28
-34 50 -61 21 -28 42 -52 46 -55 26 -20 389 -527 389 -544 0 -2 17 -31 39 -63
110 -167 310 -563 417 -825 112 -277 238 -680 280 -898 3 -14 7 -33 10 -42 3
-10 7 -30 10 -45 3 -16 11 -59 19 -98 14 -71 35 -190 40 -235 2 -14 8 -56 13
-95 6 -38 14 -99 17 -135 4 -36 9 -72 10 -81 26 -135 26 -827 1 -1054 -2 -16
-7 -61 -10 -100 -4 -38 -9 -81 -11 -95 -2 -14 -7 -45 -10 -70 -8 -61 -14 -94
-26 -165 -6 -33 -13 -73 -16 -90 -32 -209 -159 -679 -218 -810 -33 -74 -41
-95 -44 -115 -3 -22 -21 -6 -87 77 -38 48 -172 211 -298 362 -398 478 -559
686 -725 936 -153 230 -172 257 -230 330 -209 262 -490 436 -801 495 -36 7
-73 14 -83 15 -94 19 -335 23 -642 12 -587 -22 -1474 -25 -3432 -14 l-863 5 0
-1799 c0 -990 -3 -1799 -7 -1799 -5 0 -53 -3 -108 -7 -93 -6 -1704 -8 -2291
-3 -242 2 -267 4 -325 24 -76 27 -143 67 -178 108 -37 43 -189 281 -273 428
-164 286 -329 649 -432 948 -34 98 -105 323 -111 351 -2 9 -18 72 -35 141 -18
69 -34 136 -36 150 -2 14 -9 45 -14 70 -32 141 -69 378 -85 545 -4 39 -8 86
-11 105 -28 247 -22 834 11 1080 4 25 8 65 11 90 5 48 12 104 18 135 2 11 7
43 10 70 4 28 11 68 16 90 5 22 11 58 15 81 3 22 10 55 15 73 5 17 9 34 9 36
0 16 27 138 58 255 168 646 444 1252 821 1805 53 77 98 142 101 145 3 3 33 41
66 85 311 414 735 828 1175 1147 330 238 766 485 1105 624 22 9 54 22 70 29
102 45 387 146 564 200 162 49 523 133 691 160 19 3 42 8 50 10 8 2 40 7 70
11 60 7 75 9 135 17 43 6 147 19 180 22 11 1 74 5 140 9 66 5 122 10 123 11 6
5 652 -3 702 -9z"/>
</g>
</svg>
